<?xml version="1.0" encoding="UTF-8" standalone="no"?>
<svg
   xmlns:dc="http://purl.org/dc/elements/1.1/"
   xmlns:cc="http://creativecommons.org/ns#"
   xmlns:rdf="http://www.w3.org/1999/02/22-rdf-syntax-ns#"
   xmlns:svg="http://www.w3.org/2000/svg"
   xmlns="http://www.w3.org/2000/svg"
   xmlns:sodipodi="http://sodipodi.sourceforge.net/DTD/sodipodi-0.dtd"
   xmlns:inkscape="http://www.inkscape.org/namespaces/inkscape"
   id="Capa_1"
   enable-background="new 0 0 512 512"
   height="512"
   viewBox="0 0 512 512"
   width="512"
   version="1.1"
   sodipodi:docname="logo-text.svg"
   inkscape:version="1.0.1 (c497b03c, 2020-09-10)">
  <metadata
     id="metadata130">
    <rdf:RDF>
      <cc:Work
         rdf:about="">
        <dc:format>image/svg+xml</dc:format>
        <dc:type
           rdf:resource="http://purl.org/dc/dcmitype/StillImage" />
      </cc:Work>
    </rdf:RDF>
  </metadata>
  <defs
     id="defs128">
    <rect
       x="26.412698"
       y="328.12698"
       width="457.14286"
       height="146.28571"
       id="rect134" />
  </defs>
  <sodipodi:namedview
     pagecolor="#ffffff"
     bordercolor="#666666"
     borderopacity="1"
     objecttolerance="10"
     gridtolerance="10"
     guidetolerance="10"
     inkscape:pageopacity="0"
     inkscape:pageshadow="2"
     inkscape:window-width="1393"
     inkscape:window-height="1128"
     id="namedview126"
     showgrid="false"
     inkscape:zoom="0.984375"
     inkscape:cx="277.80623"
     inkscape:cy="242.85984"
     inkscape:window-x="1132"
     inkscape:window-y="204"
     inkscape:window-maximized="0"
     inkscape:current-layer="Capa_1" />
  <g
     id="g123"
     transform="matrix(0.59920635,0,0,0.64007678,99.555551,48.457806)">
    <g
       id="g91">
      <path
         d="M 241.176,445.145 H 102.424 c -14.044,0 -25.428,-11.385 -25.428,-25.428 V 280.964 c 0,-14.044 11.385,-25.428 25.428,-25.428 h 138.752 c 14.044,0 25.428,11.385 25.428,25.428 v 138.752 c 0,14.044 -11.385,25.429 -25.428,25.429 z"
         fill="#b6edff"
         id="path89" />
    </g>
    <g
       id="g95">
      <path
         d="M 338.105,65.927 H 195.104 c -12.87,0 -23.304,10.434 -23.304,23.304 v 143.001 c 0,12.87 10.434,23.304 23.304,23.304 h 4.077 v 26.084 c 0,8.213 6.658,14.872 14.871,14.872 8.213,0 14.872,-6.658 14.872,-14.872 v -26.084 h 21.997 v 58.571 c 0,8.213 6.658,14.871 14.872,14.871 8.213,0 14.871,-6.658 14.871,-14.871 v -58.571 h 57.441 c 12.87,0 23.304,-10.434 23.304,-23.304 V 89.231 c 0,-12.87 -10.434,-23.304 -23.304,-23.304 z"
         fill="#b6edff"
         id="path93" />
    </g>
    <g
       id="g99">
      <path
         d="M 431.241,255.536 H 292.49 c -14.044,0 -25.428,11.385 -25.428,25.428 v 138.752 c 0,14.044 11.385,25.428 25.428,25.428 h 138.752 c 14.044,0 25.428,-11.384 25.428,-25.428 V 280.964 c 0,-14.043 -11.385,-25.428 -25.429,-25.428 z"
         fill="#b6edff"
         id="path97" />
    </g>
    <g
       id="g103">
      <path
         d="m 241.176,255.536 h -30 c 14.044,0 25.428,11.385 25.428,25.428 v 138.752 c 0,14.044 -11.385,25.428 -25.428,25.428 h 30 c 14.044,0 25.429,-11.384 25.429,-25.428 V 280.964 c -0.001,-14.043 -11.386,-25.428 -25.429,-25.428 z"
         fill="#92edfc"
         id="path101" />
    </g>
    <g
       id="g107">
      <path
         d="m 431.241,255.536 h -30 c 14.044,0 25.428,11.385 25.428,25.428 v 138.752 c 0,14.044 -11.385,25.428 -25.428,25.428 h 30 c 14.044,0 25.428,-11.384 25.428,-25.428 V 280.964 c 0.001,-14.043 -11.384,-25.428 -25.428,-25.428 z"
         fill="#92edfc"
         id="path105" />
    </g>
    <g
       id="g111">
      <path
         d="m 338.105,65.927 h -30 c 12.87,0 23.304,10.434 23.304,23.304 v 143.001 c 0,12.871 -10.434,23.304 -23.304,23.304 h 30 c 12.87,0 23.304,-10.434 23.304,-23.304 V 89.231 c 0,-12.87 -10.434,-23.304 -23.304,-23.304 z"
         fill="#92edfc"
         id="path109" />
    </g>
    <g
       id="g121">
      <path
         d="m 364.619,420.589 h 42.09 c 12.354,0 22.406,-10.051 22.406,-22.405 v -49.232 c 0,-4.142 -3.358,-7.5 -7.5,-7.5 -4.143,0 -7.5,3.358 -7.5,7.5 v 49.232 c 0,4.083 -3.322,7.405 -7.406,7.405 h -42.09 c -4.143,0 -7.5,3.358 -7.5,7.5 0,4.142 3.357,7.5 7.5,7.5 z"
         id="path113" />
      <path
         d="m 111.042,351.022 c -4.142,0 -7.5,3.358 -7.5,7.5 v 42.09 c 0,12.354 10.051,22.405 22.405,22.405 h 49.232 c 4.142,0 7.5,-3.358 7.5,-7.5 0,-4.142 -3.358,-7.5 -7.5,-7.5 h -49.232 c -4.084,0 -7.405,-3.322 -7.405,-7.405 v -42.09 c 0,-4.142 -3.358,-7.5 -7.5,-7.5 z"
         id="path115" />
      <path
         d="m 222.72,97.122 c -12.354,0 -22.405,10.051 -22.405,22.406 v 49.232 c 0,4.142 3.358,7.5 7.5,7.5 4.142,0 7.5,-3.358 7.5,-7.5 v -49.232 c 0,-4.084 3.322,-7.406 7.405,-7.406 h 42.09 c 4.143,0 7.5,-3.358 7.5,-7.5 0,-4.142 -3.357,-7.5 -7.5,-7.5 z"
         id="path117" />
      <path
         d="m 504.5,438.574 h -46.289 c 3.749,-5.346 5.958,-11.847 5.958,-18.857 V 280.964 c 0,-18.157 -14.771,-32.928 -32.928,-32.928 h -66.709 c 2.776,-4.624 4.376,-10.03 4.376,-15.804 v -37.963 c 0,-4.142 -3.357,-7.5 -7.5,-7.5 -4.143,0 -7.5,3.358 -7.5,7.5 v 37.963 c 0,8.714 -7.09,15.804 -15.804,15.804 h -57.441 c -4.143,0 -7.5,3.358 -7.5,7.5 v 58.57 c 0,4.065 -3.307,7.371 -7.371,7.371 -4.065,0 -7.372,-3.307 -7.372,-7.371 v -58.57 c 0,-4.142 -3.357,-7.5 -7.5,-7.5 h -21.997 c -4.142,0 -7.5,3.358 -7.5,7.5 v 26.084 c 0,4.065 -3.307,7.372 -7.371,7.372 -4.065,0 -7.372,-3.307 -7.372,-7.372 v -26.084 c 0,-4.142 -3.358,-7.5 -7.5,-7.5 h -4.076 c -8.714,0 -15.804,-7.09 -15.804,-15.804 V 89.231 c 0,-8.714 7.09,-15.804 15.804,-15.804 h 143.001 c 8.714,0 15.804,7.09 15.804,15.804 v 75.038 c 0,4.142 3.357,7.5 7.5,7.5 4.143,0 7.5,-3.358 7.5,-7.5 V 89.231 c 0,-16.985 -13.818,-30.804 -30.804,-30.804 H 195.104 c -16.985,0 -30.804,13.819 -30.804,30.804 v 143.001 c 0,5.775 1.603,11.18 4.379,15.804 h -66.255 c -18.157,0 -32.928,14.771 -32.928,32.928 v 39.376 c 0,4.142 3.358,7.5 7.5,7.5 4.142,0 7.5,-3.358 7.5,-7.5 v -39.376 c 0,-9.886 8.043,-17.928 17.928,-17.928 h 89.256 v 18.584 c 0,12.336 10.036,22.372 22.372,22.372 12.336,0 22.371,-10.036 22.371,-22.372 v -18.584 h 6.997 v 51.07 c 0,10.173 6.828,18.776 16.141,21.482 v 81.57 c -0.29,0.799 -0.457,1.658 -0.457,2.558 0,9.886 -8.043,17.928 -17.928,17.928 H 102.424 c -9.886,0 -17.928,-8.042 -17.928,-17.928 V 350.34 c 0,-4.142 -3.358,-7.5 -7.5,-7.5 -4.142,0 -7.5,3.358 -7.5,7.5 v 69.376 c 0,7.011 2.209,13.512 5.959,18.857 H 7.5 c -4.142,0 -7.5,3.358 -7.5,7.5 0,4.142 3.358,7.5 7.5,7.5 h 497 c 4.143,0 7.5,-3.358 7.5,-7.5 0,-4.142 -3.357,-7.499 -7.5,-7.499 z M 288.164,314.107 v -51.07 h 143.078 c 9.886,0 17.928,8.043 17.928,17.928 v 138.752 c 0,9.886 -8.042,17.928 -17.928,17.928 H 292.49 c -9.886,0 -17.929,-8.042 -17.929,-17.928 v -85.03 c 7.99,-3.418 13.603,-11.355 13.603,-20.58 z"
         id="path119" />
    </g>
  </g>
  <text
     xml:space="preserve"
     id="text132"
     style="font-style:normal;font-weight:normal;font-size:64px;line-height:1.25;font-family:sans-serif;white-space:pre;shape-inside:url(#rect134);fill:#000000;fill-opacity:1;stroke:none;"
     transform="translate(60.952381,36.571429)"><tspan
       x="26.412109"
       y="386.51609"><tspan
         style="font-style:normal;font-variant:normal;font-weight:normal;font-stretch:normal;font-size:64px;font-family:'Apple SD Gothic Neo';-inkscape-font-specification:'Apple SD Gothic Neo';fill:#333333">@node-cool</tspan></tspan></text>
</svg>
